<svg xmlns="http://www.w3.org/2000/svg" viewBox="0 0 100 100" preserveAspectRatio="none">
  <defs>
    <filter id="scuff">
      <feTurbulence type="fractalNoise" baseFrequency="0.8" numOctaves="2" result="noise"/>
      <feColorMatrix type="luminanceToAlpha" in="noise" result="alpha"/>
      <feComponentTransfer in="alpha" result="threshold">
        <feFuncA type="discrete" tableValues="0 0 0 0 0 0 0 0 0 0 0 0 0 0 0 0 0 0 0 0 0 0 0 0 0 0 0 0 0 0 0 0 0 0 0 0 0 0 0 0 0 0 0 0 0 0 0 1"/>
      </feComponentTransfer>
      <feFlood flood-color="#c8bda0" flood-opacity="0.4"/>
      <feComposite in2="threshold" operator="in"/>
    </filter>
  </defs>

  <!-- Scuffs (random-ish paths for wear) -->
  <path d="M3 15 Q5 14 8 15.5 Q11 17 13 16" fill="none" stroke="#bfb38e" stroke-width="0.3" opacity="0.5"/>
  <path d="M95 8 Q93 10 90 9 Q87 8 85 9.5" fill="none" stroke="#bfb38e" stroke-width="0.3" opacity="0.5"/>
  <path d="M6 88 Q8 87 10 88.5 Q12 90 14 89" fill="none" stroke="#bfb38e" stroke-width="0.3" opacity="0.5"/>

  <!-- Ventilation slits (top edge) -->
  <g fill="#1a1a1a" opacity="0.25">
    <rect x="15" y="0.8" width="3" height="1.4" rx="0.3"/>
    <rect x="20" y="0.8" width="3" height="1.4" rx="0.3"/>
    <rect x="25" y="0.8" width="3" height="1.4" rx="0.3"/>
    <rect x="30" y="0.8" width="3" height="1.4" rx="0.3"/>
    <rect x="35" y="0.8" width="3" height="1.4" rx="0.3"/>
    <rect x="40" y="0.8" width="3" height="1.4" rx="0.3"/>
    <rect x="45" y="0.8" width="3" height="1.4" rx="0.3"/>
    <rect x="50" y="0.8" width="3" height="1.4" rx="0.3"/>
    <rect x="55" y="0.8" width="3" height="1.4" rx="0.3"/>
    <rect x="60" y="0.8" width="3" height="1.4" rx="0.3"/>
  </g>

  <!-- Property tag (bottom-right) -->
  <g transform="translate(70, 90.5)">
    <rect x="0" y="0" width="28" height="8" rx="0.5" fill="white" stroke="#3b5998" stroke-width="0.4"/>
    <g fill="#111">
      <rect x="3.20" y="1.5" width="0.16" height="5"/>
      <rect x="3.42" y="1.5" width="0.16" height="5"/>
      <rect x="3.64" y="1.5" width="0.36" height="5"/>
      <rect x="4.06" y="1.5" width="0.36" height="5"/>
      <rect x="4.58" y="1.5" width="0.16" height="5"/>
      <rect x="4.80" y="1.5" width="0.16" height="5"/>
      <rect x="5.02" y="1.5" width="0.16" height="5"/>
      <rect x="5.24" y="1.5" width="0.36" height="5"/>
      <rect x="5.76" y="1.5" width="0.36" height="5"/>
      <rect x="6.18" y="1.5" width="0.16" height="5"/>
      <rect x="6.40" y="1.5" width="0.36" height="5"/>
      <rect x="6.82" y="1.5" width="0.16" height="5"/>
      <rect x="7.14" y="1.5" width="0.16" height="5"/>
      <rect x="7.36" y="1.5" width="0.16" height="5"/>
      <rect x="7.58" y="1.5" width="0.36" height="5"/>
      <rect x="8.00" y="1.5" width="0.16" height="5"/>
      <rect x="8.22" y="1.5" width="0.36" height="5"/>
      <rect x="8.64" y="1.5" width="0.16" height="5"/>
      <rect x="8.96" y="1.5" width="0.36" height="5"/>
      <rect x="9.38" y="1.5" width="0.16" height="5"/>
      <rect x="9.60" y="1.5" width="0.36" height="5"/>
      <rect x="10.02" y="1.5" width="0.16" height="5"/>
      <rect x="10.24" y="1.5" width="0.16" height="5"/>
      <rect x="10.56" y="1.5" width="0.16" height="5"/>
      <rect x="10.78" y="1.5" width="0.36" height="5"/>
      <rect x="11.20" y="1.5" width="0.16" height="5"/>
      <rect x="11.42" y="1.5" width="0.36" height="5"/>
      <rect x="11.94" y="1.5" width="0.16" height="5"/>
      <rect x="12.16" y="1.5" width="0.16" height="5"/>
      <rect x="12.38" y="1.5" width="0.36" height="5"/>
      <rect x="12.80" y="1.5" width="0.36" height="5"/>
      <rect x="13.22" y="1.5" width="0.16" height="5"/>
      <rect x="13.44" y="1.5" width="0.36" height="5"/>
      <rect x="13.96" y="1.5" width="0.16" height="5"/>
      <rect x="14.18" y="1.5" width="0.16" height="5"/>
      <rect x="14.40" y="1.5" width="0.36" height="5"/>
      <rect x="14.82" y="1.5" width="0.16" height="5"/>
      <rect x="15.04" y="1.5" width="0.36" height="5"/>
      <rect x="15.46" y="1.5" width="0.16" height="5"/>
      <rect x="15.78" y="1.5" width="0.16" height="5"/>
      <rect x="16.00" y="1.5" width="0.36" height="5"/>
      <rect x="16.52" y="1.5" width="0.36" height="5"/>
      <rect x="16.94" y="1.5" width="0.16" height="5"/>
      <rect x="17.16" y="1.5" width="0.16" height="5"/>
      <rect x="17.38" y="1.5" width="0.16" height="5"/>
      <rect x="17.60" y="1.5" width="0.16" height="5"/>
      <rect x="17.92" y="1.5" width="0.16" height="5"/>
      <rect x="18.14" y="1.5" width="0.36" height="5"/>
      <rect x="18.56" y="1.5" width="0.36" height="5"/>
      <rect x="18.98" y="1.5" width="0.16" height="5"/>
      <rect x="19.20" y="1.5" width="0.16" height="5"/>
      <rect x="19.52" y="1.5" width="0.16" height="5"/>
      <rect x="19.74" y="1.5" width="0.36" height="5"/>
      <rect x="20.16" y="1.5" width="0.36" height="5"/>
      <rect x="20.58" y="1.5" width="0.16" height="5"/>
      <rect x="20.80" y="1.5" width="0.16" height="5"/>
      <rect x="21.12" y="1.5" width="0.16" height="5"/>
      <rect x="21.34" y="1.5" width="0.36" height="5"/>
      <rect x="21.76" y="1.5" width="0.36" height="5"/>
      <rect x="22.18" y="1.5" width="0.16" height="5"/>
      <rect x="22.40" y="1.5" width="0.16" height="5"/>
      <rect x="22.62" y="1.5" width="0.16" height="5"/>
      <rect x="22.84" y="1.5" width="0.36" height="5"/>
      <rect x="23.26" y="1.5" width="0.36" height="5"/>
      <rect x="23.78" y="1.5" width="0.16" height="5"/>
    </g>
  </g>
</svg>
