<svg xmlns="http://www.w3.org/2000/svg" viewBox="0 0 100 100" preserveAspectRatio="none">
  <defs>
    <filter id="scuff">
      <feTurbulence type="fractalNoise" baseFrequency="0.8" numOctaves="2" result="noise"/>
      <feColorMatrix type="luminanceToAlpha" in="noise" result="alpha"/>
      <feComponentTransfer in="alpha" result="threshold">
        <feFuncA type="discrete" tableValues="0 0 0 0 0 0 0 0 0 0 0 0 0 0 0 0 0 0 0 0 0 0 0 0 0 0 0 0 0 0 0 0 0 0 0 0 0 0 0 0 0 0 0 0 0 0 0 1"/>
      </feComponentTransfer>
      <feFlood flood-color="#c8bda0" flood-opacity="0.4"/>
      <feComposite in2="threshold" operator="in"/>
    </filter>
  </defs>

  <!-- Scuffs (random-ish paths for wear) -->
  <path d="M3 15 Q5 14 8 15.5 Q11 17 13 16" fill="none" stroke="#bfb38e" stroke-width="0.3" opacity="0.5"/>
  <path d="M95 8 Q93 10 90 9 Q87 8 85 9.5" fill="none" stroke="#bfb38e" stroke-width="0.3" opacity="0.5"/>
  <path d="M6 88 Q8 87 10 88.5 Q12 90 14 89" fill="none" stroke="#bfb38e" stroke-width="0.3" opacity="0.5"/>

  <!-- Ventilation slits (top edge) -->
  <g fill="#1a1a1a" opacity="0.25">
    <rect x="15" y="0.8" width="3" height="1.4" rx="0.3"/>
    <rect x="20" y="0.8" width="3" height="1.4" rx="0.3"/>
    <rect x="25" y="0.8" width="3" height="1.4" rx="0.3"/>
    <rect x="30" y="0.8" width="3" height="1.4" rx="0.3"/>
    <rect x="35" y="0.8" width="3" height="1.4" rx="0.3"/>
    <rect x="40" y="0.8" width="3" height="1.4" rx="0.3"/>
    <rect x="45" y="0.8" width="3" height="1.4" rx="0.3"/>
    <rect x="50" y="0.8" width="3" height="1.4" rx="0.3"/>
    <rect x="55" y="0.8" width="3" height="1.4" rx="0.3"/>
    <rect x="60" y="0.8" width="3" height="1.4" rx="0.3"/>
  </g>

  <!-- Property tag (bottom-right) -->
  <g transform="translate(70, 90.5)">
    <rect x="0" y="0" width="28" height="8" rx="0.5" fill="white" stroke="#3b5998" stroke-width="0.4"/>
    <text x="1" y="2.8" font-family="monospace" font-size="1.0" fill="#3b5998" font-weight="bold">PROPERTY ID:</text>
    <!-- Barcode bars -->
    <g fill="#111">
      <rect x="1" y="3.5" width="0.6" height="3.5"/>
      <rect x="2.2" y="3.5" width="0.3" height="3.5"/>
      <rect x="3" y="3.5" width="0.7" height="3.5"/>
      <rect x="4.3" y="3.5" width="0.3" height="3.5"/>
      <rect x="5" y="3.5" width="0.5" height="3.5"/>
      <rect x="6.2" y="3.5" width="0.8" height="3.5"/>
      <rect x="7.5" y="3.5" width="0.3" height="3.5"/>
      <rect x="8.2" y="3.5" width="0.6" height="3.5"/>
      <rect x="9.3" y="3.5" width="0.4" height="3.5"/>
      <rect x="10.2" y="3.5" width="0.7" height="3.5"/>
      <rect x="11.4" y="3.5" width="0.3" height="3.5"/>
      <rect x="12" y="3.5" width="0.5" height="3.5"/>
    </g>
  </g>
</svg>
